<svg width="32" height="36" viewBox="0 0 32 36" fill="none" xmlns="http://www.w3.org/2000/svg">
<path d="M13.124 26.792L25.916 14L24.5 12.584L13.124 23.962L7.424 18.262L6.008 19.678L13.124 26.792ZM3.232 36C2.336 36 1.57333 35.6853 0.944 35.056C0.314667 34.4267 0 33.6647 0 32.77V7.23C0 6.33667 0.314667 5.57467 0.944 4.944C1.57333 4.31467 2.336 4 3.232 4H12.632C12.4493 2.97867 12.6933 2.05667 13.364 1.234C14.0333 0.411334 14.912 0 16 0C17.1133 0 18.0053 0.411334 18.676 1.234C19.3467 2.05667 19.578 2.97867 19.37 4H28.77C29.6633 4 30.4253 4.31467 31.056 4.944C31.6853 5.57333 32 6.336 32 7.232V32.77C32 33.6633 31.6853 34.4253 31.056 35.056C30.4267 35.6853 29.6647 36 28.77 36H3.232ZM3.232 34H28.77C29.0767 34 29.3587 33.872 29.616 33.616C29.8733 33.36 30.0013 33.0773 30 32.768V7.232C30 6.924 29.872 6.64133 29.616 6.384C29.36 6.12667 29.0773 5.99867 28.768 6H3.232C2.924 6 2.64133 6.128 2.384 6.384C2.12667 6.64 1.99867 6.92267 2 7.232V32.77C2 33.0767 2.128 33.3587 2.384 33.616C2.64 33.8733 2.922 34.0013 3.23 34M16 4.884C16.4333 4.884 16.792 4.74267 17.076 4.46C17.36 4.17733 17.5013 3.81867 17.5 3.384C17.4987 2.94933 17.3567 2.59133 17.074 2.31C16.7913 2.02867 16.4333 1.88667 16 1.884C15.5667 1.88133 15.2087 2.02333 14.926 2.31C14.6433 2.59667 14.5013 2.95467 14.5 3.384C14.4987 3.81333 14.6407 4.172 14.926 4.46C15.2113 4.748 15.5693 4.88933 16 4.884Z" fill="#9E9E9E"/>
</svg>