<svg width="14" height="12" viewBox="0 0 14 12" fill="none" xmlns="http://www.w3.org/2000/svg">
<path d="M0.75 6.27295C0.335786 6.27295 0 5.93716 0 5.52295C0 5.10874 0.335786 4.77295 0.75 4.77295L0.75 5.52295L0.75 6.27295ZM13.2803 4.99262C13.5732 5.28551 13.5732 5.76039 13.2803 6.05328L8.50736 10.8263C8.21447 11.1191 7.73959 11.1191 7.4467 10.8263C7.15381 10.5334 7.15381 10.0585 7.4467 9.76559L11.6893 5.52295L7.4467 1.28031C7.15381 0.987415 7.15381 0.512542 7.4467 0.219648C7.73959 -0.073245 8.21447 -0.073245 8.50736 0.219648L13.2803 4.99262ZM0.75 5.52295L0.75 4.77295L12.75 4.77295V5.52295V6.27295L0.75 6.27295L0.75 5.52295Z" fill="#616161"/>
</svg>