<svg width="20" height="21" viewBox="0 0 20 21" fill="none" xmlns="http://www.w3.org/2000/svg">
<path d="M12.75 2.75V0.75M12.75 2.75V4.75M12.75 2.75H8.25M0.75 8.75V17.75C0.75 18.2804 0.960714 18.7891 1.33579 19.1642C1.71086 19.5393 2.21957 19.75 2.75 19.75H16.75C17.2804 19.75 17.7891 19.5393 18.1642 19.1642C18.5393 18.7891 18.75 18.2804 18.75 17.75V8.75M0.75 8.75H18.75M0.75 8.75V4.75C0.75 4.21957 0.960714 3.71086 1.33579 3.33579C1.71086 2.96071 2.21957 2.75 2.75 2.75H4.75M18.75 8.75V4.75C18.75 4.21957 18.5393 3.71086 18.1642 3.33579C17.7891 2.96071 17.2804 2.75 16.75 2.75H16.25M4.75 0.75V4.75" stroke="#616161" stroke-width="1.5" stroke-linecap="round" stroke-linejoin="round"/>
</svg>

