<svg width="14" height="14" viewBox="0 0 14 14" fill="none" xmlns="http://www.w3.org/2000/svg">
<path d="M12.75 6.74999C12.751 7.53776 12.5965 8.31797 12.2955 9.04592C11.9944 9.77388 11.5526 10.4353 10.9954 10.9922C10.438 11.5497 9.77612 11.9919 9.04767 12.2936C8.31922 12.5952 7.53847 12.7503 6.75004 12.75C5.90149 12.7519 5.06229 12.5727 4.28844 12.2246L1.78014 12.5956C1.6556 12.6159 1.52798 12.6056 1.40836 12.5654C1.28874 12.5252 1.18075 12.4564 1.09375 12.365C1.00675 12.2736 0.943389 12.1623 0.90916 12.0409C0.87493 11.9194 0.870872 11.7914 0.897337 11.668L1.24566 9.1234C0.914327 8.37626 0.745414 7.56729 0.750095 6.74999C0.749087 5.96223 0.903553 5.18201 1.20464 4.45406C1.50572 3.72611 1.94751 3.06473 2.50467 2.50784C3.06211 1.95027 3.72397 1.50804 4.45242 1.20641C5.18087 0.904793 5.96162 0.7497 6.75004 0.75C8.34221 0.750107 9.8692 1.38237 10.9954 2.50784C11.5523 3.06494 11.9939 3.72636 12.295 4.45427C12.596 5.18217 12.7506 5.96228 12.75 6.74999Z" stroke="#616161" stroke-width="1.5" stroke-linecap="round" stroke-linejoin="round"/>
</svg>