<svg width="38" height="27" viewBox="0 0 38 27" fill="none" xmlns="http://www.w3.org/2000/svg">
<path d="M0 26.464V23.17C0 22.242 0.24 21.444 0.72 20.776C1.20133 20.1093 1.848 19.576 2.66 19.176C4.39467 18.3493 6.11733 17.6907 7.828 17.2C9.53733 16.7093 11.5947 16.464 14 16.464C16.4053 16.464 18.4633 16.7093 20.174 17.2C21.8847 17.6907 23.6073 18.3493 25.342 19.176C26.1527 19.576 26.7987 20.1093 27.28 20.776C27.76 21.444 28 22.242 28 23.17V26.464H0ZM32 26.464V23.078C32 21.918 31.7653 20.824 31.296 19.796C30.828 18.7667 30.1627 17.884 29.3 17.148C30.2827 17.348 31.2293 17.6253 32.14 17.98C33.0493 18.336 33.9493 18.7353 34.84 19.178C35.7067 19.614 36.386 20.172 36.878 20.852C37.37 21.532 37.616 22.274 37.616 23.078V26.464H32ZM14 12.002C12.3507 12.002 10.9387 11.414 9.764 10.238C8.58933 9.062 8.00133 7.64934 8 6C7.99867 4.35067 8.58667 2.93867 9.764 1.764C10.9413 0.589336 12.3533 0.0013356 14 2.26244e-06C15.6467 -0.00133107 17.0593 0.586669 18.238 1.764C19.4167 2.94134 20.004 4.35334 20 6C19.996 7.64667 19.4087 9.06 18.238 10.24C17.0673 11.42 15.6547 12.0067 14 12M28.54 6C28.54 7.65067 27.952 9.064 26.776 10.24C25.6 11.416 24.188 12.0027 22.54 12C22.4547 12 22.3467 11.9907 22.216 11.972C22.0853 11.9533 21.9773 11.932 21.892 11.908C22.5707 11.0787 23.0913 10.1587 23.454 9.148C23.818 8.136 24 7.08534 24 5.996C24 4.90667 23.81 3.86667 23.43 2.876C23.05 1.88534 22.5373 0.958003 21.892 0.0940031C22 0.0553364 22.108 0.0300029 22.216 0.0180029C22.324 0.00600287 22.432 2.26244e-06 22.54 2.26244e-06C24.1893 2.26244e-06 25.6013 0.588002 26.776 1.764C27.9507 2.94 28.5387 4.352 28.54 6ZM2 24.464H26V23.17C26 22.7007 25.8827 22.2907 25.648 21.94C25.4133 21.5893 24.992 21.2533 24.384 20.932C22.892 20.1347 21.3187 19.524 19.664 19.1C18.0093 18.676 16.1213 18.464 14 18.464C11.8787 18.464 9.99 18.676 8.334 19.1C6.68067 19.524 5.10733 20.1347 3.614 20.932C3.00733 21.252 2.58667 21.588 2.352 21.94C2.11733 22.2907 2 22.7007 2 23.17V24.464ZM14 10.002C15.1 10.002 16.042 9.61 16.826 8.826C17.61 8.042 18.0013 7.1 18 6C17.9987 4.9 17.6073 3.95867 16.826 3.176C16.0447 2.39334 15.1027 2.00134 14 2C12.8973 1.99867 11.956 2.39067 11.176 3.176C10.396 3.96134 10.004 4.90267 10 6C9.996 7.09734 10.388 8.03934 11.176 8.826C11.964 9.61267 12.9053 10.004 14 10" fill="#9E9E9E"/>
</svg>