<svg width="40" height="40" viewBox="0 0 40 40" fill="none" xmlns="http://www.w3.org/2000/svg">
<rect x="0.5" y="0.5" width="39" height="39" rx="19.5" fill="white"/>
<rect x="0.5" y="0.5" width="39" height="39" rx="19.5" stroke="#E0E0E0"/>
<path d="M11.25 28.75H12.6225L25.995 15.3775L24.6225 14.005L11.25 27.3775V28.75ZM11.01 30C10.7242 30 10.4842 29.9033 10.29 29.71C10.0958 29.5167 9.99917 29.2767 10 28.99V27.69C10 27.4133 10.0542 27.15 10.1625 26.9C10.2708 26.65 10.4163 26.4342 10.5988 26.2525L26.475 10.3588C26.6025 10.2446 26.7437 10.1562 26.8988 10.0937C27.0538 10.0312 27.2154 10 27.3838 10C27.5521 10 27.7146 10.0267 27.8713 10.08C28.0279 10.1333 28.1737 10.2283 28.3088 10.365L29.6425 11.7075C29.78 11.84 29.8742 11.9858 29.925 12.145C29.975 12.3033 30 12.4617 30 12.62C30 12.79 29.9717 12.9525 29.915 13.1075C29.8575 13.2617 29.7667 13.4029 29.6425 13.5312L13.7475 29.4012C13.5667 29.5829 13.3508 29.7279 13.1 29.8363C12.8492 29.9446 12.5858 29.9992 12.31 30H11.01ZM25.2975 14.7025L24.6225 14.005L25.995 15.3775L25.2975 14.7025Z" fill="#424242"/>
</svg>
