<svg width="18" height="13" viewBox="0 0 18 13" fill="none" xmlns="http://www.w3.org/2000/svg">
<path d="M8.7947 0.75C4.35512 0.75 1.88823 4.20282 1.01157 5.73759C0.831347 6.05238 0.741642 6.21058 0.750612 6.44545C0.761214 6.68031 0.867229 6.83363 1.07844 7.14025C2.12228 8.65545 4.95696 12.167 8.7947 12.167C12.6324 12.167 15.4671 8.65545 16.511 7.14025C16.723 6.83363 16.829 6.68031 16.838 6.44545C16.8469 6.21058 16.7581 6.05238 16.5778 5.73759C15.702 4.20282 13.2343 0.75 8.7947 0.75Z" stroke="#616161" stroke-width="1.5"/>
<path d="M8.79464 8.90526C10.1458 8.90526 11.2411 7.80993 11.2411 6.45877C11.2411 5.1076 10.1458 4.01227 8.79464 4.01227C7.44348 4.01227 6.34814 5.1076 6.34814 6.45877C6.34814 7.80993 7.44348 8.90526 8.79464 8.90526Z" stroke="#616161" stroke-width="1.5"/>
</svg>