<svg width="28" height="31" viewBox="0 0 28 31" fill="none" xmlns="http://www.w3.org/2000/svg">
<path d="M2 28.77H9.384V18.616C9.384 18.1587 9.53933 17.7753 9.85 17.466C10.1593 17.1553 10.5427 17 11 17H17C17.4573 17 17.8413 17.1553 18.152 17.466C18.4613 17.7753 18.616 18.1587 18.616 18.616V28.77H26V11.386C26 11.1807 25.9553 10.994 25.866 10.826C25.7767 10.658 25.6547 10.5113 25.5 10.386L14.732 2.27C14.5267 2.09133 14.2827 2.002 14 2.002C13.7173 2.002 13.474 2.09133 13.27 2.27L2.5 10.386C2.34667 10.514 2.22467 10.6607 2.134 10.826C2.04333 10.9913 1.99867 11.178 2 11.386V28.77ZM0 28.77V11.386C0 10.874 0.114667 10.3893 0.344 9.932C0.573333 9.47467 0.889333 9.098 1.292 8.802L12.062 0.646001C12.626 0.215334 13.27 0 13.994 0C14.718 0 15.366 0.215334 15.938 0.646001L26.708 8.8C27.112 9.096 27.428 9.47333 27.656 9.932C27.8853 10.3893 28 10.874 28 11.386V28.77C28 29.306 27.8007 29.7733 27.402 30.172C27.0033 30.5707 26.536 30.77 26 30.77H18.232C17.7733 30.77 17.3893 30.6153 17.08 30.306C16.7707 29.9953 16.616 29.6113 16.616 29.154V19.002H11.384V29.154C11.384 29.6127 11.2293 29.9967 10.92 30.306C10.6107 30.6153 10.2273 30.77 9.77 30.77H2C1.464 30.77 0.996666 30.5707 0.598 30.172C0.199333 29.7733 0 29.306 0 28.77Z" fill="#595122"/>
</svg>