<svg width="28" height="36" viewBox="0 0 28 36" fill="none" xmlns="http://www.w3.org/2000/svg">
<path d="M3.232 36C2.336 36 1.57333 35.6853 0.944 35.056C0.314667 34.4267 0 33.6647 0 32.77V3.23C0 2.33667 0.314667 1.57467 0.944 0.944C1.57333 0.314666 2.336 0 3.232 0H24.77C25.6633 0 26.4253 0.314666 27.056 0.944C27.6853 1.57333 28 2.336 28 3.232V32.77C28 33.6633 27.6853 34.4253 27.056 35.056C26.4267 35.6853 25.6647 36 24.77 36H3.232ZM3.232 34H24.77C25.0767 34 25.3587 33.872 25.616 33.616C25.8733 33.36 26.0013 33.0773 26 32.768V3.232C26 2.924 25.872 2.64133 25.616 2.384C25.36 2.12667 25.0773 1.99867 24.768 2H3.232C2.924 2 2.64133 2.128 2.384 2.384C2.12667 2.64 1.99867 2.922 2 3.23V32.77C2 33.0767 2.128 33.3587 2.384 33.616C2.64 33.8733 2.922 34.0013 3.23 34M14 30.46C16.3307 30.46 18.324 29.6333 19.98 27.98C21.6333 26.324 22.46 24.3307 22.46 22C22.46 19.6693 21.6333 17.676 19.98 16.02C18.3227 14.3667 16.3293 13.54 14 13.54C11.6707 13.54 9.67733 14.3667 8.02 16.02C6.36667 17.6773 5.54 19.6707 5.54 22C5.54 24.3293 6.36667 26.3227 8.02 27.98C9.676 29.6333 11.6693 30.46 14 30.46ZM14 28.6C13.1333 28.6 12.298 28.4353 11.494 28.106C10.69 27.7767 9.984 27.308 9.376 26.7L18.7 17.378C19.308 17.9847 19.7767 18.69 20.106 19.494C20.4353 20.298 20.6 21.1333 20.6 22C20.6 23.8333 19.9587 25.392 18.676 26.676C17.3933 27.96 15.8347 28.6013 14 28.6ZM6 8C6.56667 8 7.042 7.808 7.426 7.424C7.81 7.04 8.00133 6.56533 8 6C7.99867 5.43467 7.80667 4.96 7.424 4.576C7.04133 4.192 6.56667 4 6 4C5.43333 4 4.95867 4.192 4.576 4.576C4.19333 4.96 4.00133 5.43467 4 6C3.99867 6.56533 4.19067 7.04067 4.576 7.426C4.96133 7.81133 5.436 8.00267 6 8ZM12 8C12.5667 8 13.042 7.808 13.426 7.424C13.81 7.04 14.0013 6.56533 14 6C13.9987 5.43467 13.8067 4.96 13.424 4.576C13.0413 4.192 12.5667 4 12 4C11.4333 4 10.9587 4.192 10.576 4.576C10.1933 4.96 10.0013 5.43467 10 6C9.99867 6.56533 10.1907 7.04067 10.576 7.426C10.9613 7.81133 11.436 8.00267 12 8Z" fill="#595122"/>
</svg>