<svg width="20" height="20" viewBox="0 0 20 20" fill="none" xmlns="http://www.w3.org/2000/svg">
<path d="M1.25001 18.75H2.6225L15.995 5.3775L14.6225 4.005L1.25001 17.3775V18.75ZM1.01001 20C0.724172 20 0.484172 19.9033 0.290005 19.71C0.0958385 19.5167 -0.000827991 19.2767 5.34189e-06 18.99V17.69C5.34189e-06 17.4133 0.0541721 17.15 0.162505 16.9C0.270839 16.65 0.416255 16.4342 0.598755 16.2525L16.475 0.35875C16.6025 0.244584 16.7437 0.15625 16.8988 0.0937498C17.0538 0.0312498 17.2154 0 17.3838 0C17.5521 0 17.7146 0.0266668 17.8713 0.0800002C18.0279 0.133333 18.1737 0.228333 18.3088 0.365L19.6425 1.7075C19.78 1.84 19.8742 1.98583 19.925 2.145C19.975 2.30333 20 2.46167 20 2.62C20 2.79 19.9717 2.9525 19.915 3.1075C19.8575 3.26167 19.7667 3.40292 19.6425 3.53125L3.7475 19.4012C3.56667 19.5829 3.35084 19.7279 3.1 19.8363C2.84917 19.9446 2.58584 19.9992 2.31 20H1.01001ZM15.2975 4.7025L14.6225 4.005L15.995 5.3775L15.2975 4.7025Z" fill="#424242"/>
</svg>
