<svg width="96" height="280" viewBox="0 0 96 280" fill="none" xmlns="http://www.w3.org/2000/svg">
<path d="M5.95898 17H4.00781V6.20703H3.9375L0.896484 8.19336V6.34766L4.06055 4.27344H5.95898V17ZM12.9206 17.1758C12.0124 17.1758 11.2009 17.0234 10.4861 16.7188C9.77707 16.4141 9.22336 15.9922 8.82492 15.4531C8.43234 14.9082 8.23898 14.293 8.24484 13.6074C8.23898 13.0742 8.35324 12.5791 8.58762 12.1221C8.82199 11.6592 9.14133 11.2783 9.54562 10.9795C9.95578 10.6748 10.407 10.4844 10.8991 10.4082V10.3379C10.4714 10.2383 10.0905 10.0537 9.75656 9.78418C9.42844 9.50879 9.17355 9.17188 8.99191 8.77344C8.81027 8.375 8.71945 7.94727 8.71945 7.49023C8.71945 6.8457 8.90109 6.26563 9.26437 5.75C9.62766 5.23437 10.1286 4.83008 10.7673 4.53711C11.406 4.24414 12.1237 4.09766 12.9206 4.09766C13.7116 4.09766 14.4236 4.24414 15.0564 4.53711C15.695 4.83008 16.1931 5.23437 16.5505 5.75C16.9138 6.26563 17.0984 6.8457 17.1042 7.49023C17.0984 7.94727 17.0017 8.375 16.8142 8.77344C16.6325 9.17188 16.3777 9.50879 16.0495 9.78418C15.7214 10.0537 15.3464 10.2383 14.9245 10.3379V10.4082C15.4109 10.4844 15.8562 10.6748 16.2605 10.9795C16.6706 11.2783 16.9929 11.6592 17.2273 12.1221C17.4675 12.5791 17.5905 13.0742 17.5964 13.6074C17.5905 14.293 17.3884 14.9082 16.99 15.4531C16.5915 15.9922 16.0378 16.4141 15.3288 16.7188C14.6198 17.0234 13.8171 17.1758 12.9206 17.1758ZM12.9206 15.5762C13.4655 15.5762 13.9402 15.4883 14.3445 15.3125C14.7546 15.1367 15.071 14.8906 15.2937 14.5742C15.5163 14.252 15.6277 13.8828 15.6277 13.4668C15.6277 13.0332 15.5105 12.6436 15.2761 12.2979C15.0417 11.9521 14.7195 11.6826 14.3093 11.4893C13.8991 11.2959 13.4362 11.1992 12.9206 11.1992C12.3991 11.1992 11.9304 11.2959 11.5144 11.4893C11.0984 11.6826 10.7732 11.9521 10.5388 12.2979C10.3103 12.6436 10.2019 13.0332 10.2136 13.4668C10.2019 13.8828 10.3044 14.249 10.5212 14.5654C10.738 14.8818 11.0515 15.1309 11.4616 15.3125C11.8777 15.4883 12.364 15.5762 12.9206 15.5762ZM12.9206 9.66992C13.3601 9.66992 13.7527 9.58789 14.0984 9.42383C14.4499 9.25391 14.7224 9.0166 14.9157 8.71191C15.1091 8.40723 15.2058 8.05859 15.2058 7.66602C15.2058 7.2793 15.1091 6.93652 14.9157 6.6377C14.7224 6.33301 14.4529 6.09863 14.1071 5.93457C13.7614 5.76465 13.3659 5.67969 12.9206 5.67969C12.4577 5.67969 12.0505 5.76172 11.6989 5.92578C11.3474 6.08984 11.0749 6.32422 10.8816 6.62891C10.6941 6.92773 10.6003 7.27344 10.6003 7.66602C10.6003 8.05859 10.6999 8.40723 10.8991 8.71191C11.0984 9.0166 11.3737 9.25391 11.7253 9.42383C12.0769 9.58789 12.4753 9.66992 12.9206 9.66992ZM20.1284 15.3652C19.9057 15.3652 19.6948 15.3096 19.4955 15.1982C19.3022 15.0869 19.1498 14.9346 19.0385 14.7412C18.9272 14.5479 18.8745 14.3398 18.8803 14.1172C18.8745 13.8945 18.9272 13.6865 19.0385 13.4932C19.1498 13.2998 19.3022 13.1475 19.4955 13.0361C19.6948 12.9248 19.9057 12.8691 20.1284 12.8691C20.3452 12.8691 20.5502 12.9248 20.7436 13.0361C20.937 13.1475 21.0893 13.2998 21.2006 13.4932C21.3178 13.6865 21.3764 13.8945 21.3764 14.1172C21.3764 14.3398 21.3178 14.5479 21.2006 14.7412C21.0893 14.9346 20.937 15.0869 20.7436 15.1982C20.5502 15.3096 20.3452 15.3652 20.1284 15.3652ZM20.1284 8.42188C19.9057 8.42188 19.6948 8.36621 19.4955 8.25488C19.3022 8.14355 19.1498 7.99121 19.0385 7.79785C18.9272 7.60449 18.8745 7.39648 18.8803 7.17383C18.8745 6.95117 18.9272 6.74316 19.0385 6.5498C19.1498 6.35645 19.3022 6.2041 19.4955 6.09277C19.6948 5.98145 19.9057 5.92578 20.1284 5.92578C20.3452 5.92578 20.5502 5.98145 20.7436 6.09277C20.937 6.2041 21.0893 6.35645 21.2006 6.5498C21.3178 6.74316 21.3764 6.95117 21.3764 7.17383C21.3764 7.39648 21.3178 7.60449 21.2006 7.79785C21.0893 7.99121 20.937 8.14355 20.7436 8.25488C20.5502 8.36621 20.3452 8.42188 20.1284 8.42188ZM22.9064 15.5938L27.3185 11.1465C27.8517 10.584 28.2589 10.1328 28.5402 9.79297C28.8214 9.45312 29.0353 9.12207 29.1818 8.7998C29.3341 8.47168 29.4103 8.12891 29.4103 7.77148C29.4103 7.36133 29.3078 7.00098 29.1027 6.69043C28.8976 6.37988 28.6164 6.13965 28.2589 5.96973C27.9015 5.7998 27.5002 5.71484 27.0548 5.71484C26.592 5.71484 26.1847 5.80859 25.8332 5.99609C25.4816 6.18359 25.2091 6.44727 25.0158 6.78711C24.8283 7.12695 24.7345 7.51953 24.7345 7.96484H22.9064C22.9005 7.20312 23.0763 6.5293 23.4338 5.94336C23.7912 5.35742 24.2892 4.90332 24.9279 4.58105C25.5666 4.25879 26.2873 4.09766 27.09 4.09766C27.8986 4.09766 28.6164 4.25586 29.2433 4.57227C29.8761 4.88281 30.3683 5.31348 30.7199 5.86426C31.0714 6.41504 31.2502 7.0332 31.256 7.71875C31.2502 8.20508 31.1564 8.67383 30.9748 9.125C30.7931 9.57031 30.4826 10.0684 30.0431 10.6191C29.6037 11.1641 28.9826 11.832 28.1798 12.623L25.5959 15.2422V15.3477H31.467V17H22.9064V15.5938ZM37.3212 17.1758C36.3427 17.1758 35.5018 16.9209 34.7987 16.4111C34.1014 15.9014 33.5682 15.1572 33.1991 14.1787C32.83 13.1943 32.6454 12.0137 32.6454 10.6367C32.6454 9.27148 32.83 8.09961 33.1991 7.12109C33.5741 6.13672 34.1132 5.38672 34.8163 4.87109C35.5194 4.35547 36.3544 4.09766 37.3212 4.09766C38.288 4.09766 39.1229 4.35547 39.8261 4.87109C40.5292 5.38672 41.0653 6.13672 41.4345 7.12109C41.8095 8.09961 41.997 9.27148 41.997 10.6367C41.997 12.0137 41.8124 13.1914 41.4432 14.1699C41.0741 15.1484 40.538 15.8955 39.8348 16.4111C39.1317 16.9209 38.2938 17.1758 37.3212 17.1758ZM37.3212 15.5059C37.8954 15.5059 38.3876 15.3213 38.7977 14.9521C39.2079 14.5771 39.5214 14.0264 39.7382 13.2998C39.955 12.5732 40.0634 11.6855 40.0634 10.6367C40.0634 9.59375 39.952 8.70605 39.7294 7.97363C39.5126 7.23535 39.1991 6.67871 38.7889 6.30371C38.3788 5.92285 37.8895 5.73242 37.3212 5.73242C36.7528 5.73242 36.2636 5.92285 35.8534 6.30371C35.4432 6.67871 35.1268 7.23535 34.9042 7.97363C34.6874 8.70605 34.579 9.59375 34.579 10.6367C34.579 11.6855 34.6874 12.5732 34.9042 13.2998C35.121 14.0264 35.4345 14.5771 35.8446 14.9521C36.2548 15.3213 36.747 15.5059 37.3212 15.5059ZM43.8434 10.3027C44.1305 9.98047 44.4498 9.7373 44.8014 9.57324C45.1588 9.40332 45.5367 9.31836 45.9352 9.31836C46.2457 9.31836 46.5504 9.3623 46.8492 9.4502C47.1539 9.53809 47.5113 9.66406 47.9215 9.82812C48.3434 9.99219 48.6949 10.1152 48.9762 10.1973C49.2633 10.2793 49.5563 10.3203 49.8551 10.3203C50.6813 10.3203 51.3668 9.96875 51.9117 9.26562V10.9531C51.3082 11.6094 50.6109 11.9375 49.8199 11.9375C49.5094 11.9375 49.2018 11.8936 48.8971 11.8057C48.5982 11.7178 48.2438 11.5918 47.8336 11.4277C47.3883 11.2578 47.025 11.1348 46.7438 11.0586C46.4684 10.9766 46.1813 10.9355 45.8824 10.9355C45.0855 10.9355 44.4059 11.2871 43.8434 11.9902V10.3027ZM58.8382 17H56.887V6.20703H56.8167L53.7757 8.19336V6.34766L56.9398 4.27344H58.8382V17ZM65.6944 4.09766C66.5498 4.09766 67.3379 4.29102 68.0586 4.67773C68.7852 5.05859 69.377 5.70313 69.834 6.61133C70.2969 7.51367 70.5284 8.70312 70.5284 10.1797C70.5284 11.6504 70.3262 12.9102 69.9219 13.959C69.5235 15.0078 68.9493 15.8076 68.1993 16.3584C67.4551 16.9033 66.5733 17.1758 65.5537 17.1758C64.7862 17.1758 64.0948 17.0293 63.4795 16.7363C62.8702 16.4375 62.3721 16.0244 61.9854 15.4971C61.6045 14.9639 61.3643 14.3516 61.2647 13.6602H63.1807C63.3155 14.2168 63.5879 14.6621 63.9981 14.9961C64.4141 15.3242 64.9327 15.4883 65.5537 15.4883C66.2041 15.4883 66.7608 15.3066 67.2237 14.9434C67.6924 14.5742 68.0498 14.0439 68.2959 13.3525C68.5479 12.6553 68.6768 11.8262 68.6827 10.8652H68.5245C68.1787 11.4043 67.7188 11.8262 67.1446 12.1309C66.5762 12.4355 65.9522 12.5879 65.2725 12.5879C64.5166 12.5879 63.8252 12.4092 63.1983 12.0518C62.5713 11.6943 62.0733 11.1963 61.7041 10.5576C61.3409 9.91895 61.1592 9.20117 61.1592 8.4043C61.1592 7.60156 61.3467 6.87207 61.7217 6.21582C62.1026 5.55957 62.6358 5.04395 63.3213 4.66895C64.0127 4.28809 64.8037 4.09766 65.6944 4.09766ZM65.7295 5.71484C65.2256 5.71484 64.7686 5.83496 64.3584 6.0752C63.9483 6.30957 63.626 6.63184 63.3916 7.04199C63.1573 7.44629 63.0401 7.88867 63.0401 8.36914C63.0401 8.85547 63.1543 9.30078 63.3829 9.70508C63.6114 10.1094 63.9278 10.4287 64.3321 10.6631C64.7364 10.8916 65.1905 11.0059 65.6944 11.0059C66.1924 11.0059 66.6495 10.8828 67.0655 10.6367C67.4815 10.3906 67.8096 10.0654 68.0498 9.66113C68.2959 9.25098 68.419 8.81445 68.419 8.35156C68.419 7.89453 68.3018 7.46387 68.0674 7.05957C67.8389 6.65527 67.5166 6.33008 67.1006 6.08398C66.6905 5.83789 66.2334 5.71484 65.7295 5.71484ZM73.0955 15.3652C72.8728 15.3652 72.6619 15.3096 72.4627 15.1982C72.2693 15.0869 72.117 14.9346 72.0056 14.7412C71.8943 14.5479 71.8416 14.3398 71.8474 14.1172C71.8416 13.8945 71.8943 13.6865 72.0056 13.4932C72.117 13.2998 72.2693 13.1475 72.4627 13.0361C72.6619 12.9248 72.8728 12.8691 73.0955 12.8691C73.3123 12.8691 73.5173 12.9248 73.7107 13.0361C73.9041 13.1475 74.0564 13.2998 74.1677 13.4932C74.2849 13.6865 74.3435 13.8945 74.3435 14.1172C74.3435 14.3398 74.2849 14.5479 74.1677 14.7412C74.0564 14.9346 73.9041 15.0869 73.7107 15.1982C73.5173 15.3096 73.3123 15.3652 73.0955 15.3652ZM73.0955 8.42188C72.8728 8.42188 72.6619 8.36621 72.4627 8.25488C72.2693 8.14355 72.117 7.99121 72.0056 7.79785C71.8943 7.60449 71.8416 7.39648 71.8474 7.17383C71.8416 6.95117 71.8943 6.74316 72.0056 6.5498C72.117 6.35645 72.2693 6.2041 72.4627 6.09277C72.6619 5.98145 72.8728 5.92578 73.0955 5.92578C73.3123 5.92578 73.5173 5.98145 73.7107 6.09277C73.9041 6.2041 74.0564 6.35645 74.1677 6.5498C74.2849 6.74316 74.3435 6.95117 74.3435 7.17383C74.3435 7.39648 74.2849 7.60449 74.1677 7.79785C74.0564 7.99121 73.9041 8.14355 73.7107 8.25488C73.5173 8.36621 73.3123 8.42188 73.0955 8.42188ZM80.7075 17H78.7563V6.20703H78.686L75.645 8.19336V6.34766L78.8091 4.27344H80.7075V17ZM87.6516 17.1758C86.673 17.1758 85.8322 16.9209 85.1291 16.4111C84.4318 15.9014 83.8986 15.1572 83.5295 14.1787C83.1604 13.1943 82.9758 12.0137 82.9758 10.6367C82.9758 9.27148 83.1604 8.09961 83.5295 7.12109C83.9045 6.13672 84.4436 5.38672 85.1467 4.87109C85.8498 4.35547 86.6848 4.09766 87.6516 4.09766C88.6184 4.09766 89.4533 4.35547 90.1564 4.87109C90.8596 5.38672 91.3957 6.13672 91.7648 7.12109C92.1398 8.09961 92.3273 9.27148 92.3273 10.6367C92.3273 12.0137 92.1428 13.1914 91.7736 14.1699C91.4045 15.1484 90.8684 15.8955 90.1652 16.4111C89.4621 16.9209 88.6242 17.1758 87.6516 17.1758ZM87.6516 15.5059C88.2258 15.5059 88.718 15.3213 89.1281 14.9521C89.5383 14.5771 89.8518 14.0264 90.0686 13.2998C90.2854 12.5732 90.3938 11.6855 90.3938 10.6367C90.3938 9.59375 90.2824 8.70605 90.0598 7.97363C89.843 7.23535 89.5295 6.67871 89.1193 6.30371C88.7092 5.92285 88.2199 5.73242 87.6516 5.73242C87.0832 5.73242 86.5939 5.92285 86.1838 6.30371C85.7736 6.67871 85.4572 7.23535 85.2346 7.97363C85.0178 8.70605 84.9094 9.59375 84.9094 10.6367C84.9094 11.6855 85.0178 12.5732 85.2346 13.2998C85.4514 14.0264 85.7648 14.5771 86.175 14.9521C86.5852 15.3213 87.0773 15.5059 87.6516 15.5059Z" fill="#616161"/>
<path d="M5.95898 103H4.00781V92.207H3.9375L0.896484 94.1934V92.3477L4.06055 90.2734H5.95898V103ZM12.8152 90.0977C13.6706 90.0977 14.4587 90.291 15.1794 90.6777C15.906 91.0586 16.4978 91.7031 16.9548 92.6113C17.4177 93.5137 17.6491 94.7031 17.6491 96.1797C17.6491 97.6504 17.447 98.9102 17.0427 99.959C16.6443 101.008 16.07 101.808 15.32 102.358C14.5759 102.903 13.6941 103.176 12.6745 103.176C11.907 103.176 11.2155 103.029 10.6003 102.736C9.99094 102.438 9.49289 102.024 9.10617 101.497C8.72531 100.964 8.48508 100.352 8.38547 99.6602H10.3015C10.4362 100.217 10.7087 100.662 11.1189 100.996C11.5349 101.324 12.0534 101.488 12.6745 101.488C13.3249 101.488 13.8816 101.307 14.3445 100.943C14.8132 100.574 15.1706 100.044 15.4167 99.3525C15.6687 98.6553 15.7976 97.8262 15.8034 96.8652H15.6452C15.2995 97.4043 14.8396 97.8262 14.2654 98.1309C13.697 98.4355 13.073 98.5879 12.3933 98.5879C11.6374 98.5879 10.946 98.4092 10.3191 98.0518C9.69211 97.6943 9.19406 97.1963 8.82492 96.5576C8.46164 95.9189 8.28 95.2012 8.28 94.4043C8.28 93.6016 8.4675 92.8721 8.8425 92.2158C9.22336 91.5596 9.75656 91.0439 10.4421 90.6689C11.1335 90.2881 11.9245 90.0977 12.8152 90.0977ZM12.8503 91.7148C12.3464 91.7148 11.8894 91.835 11.4792 92.0752C11.0691 92.3096 10.7468 92.6318 10.5124 93.042C10.278 93.4463 10.1609 93.8887 10.1609 94.3691C10.1609 94.8555 10.2751 95.3008 10.5036 95.7051C10.7321 96.1094 11.0486 96.4287 11.4529 96.6631C11.8571 96.8916 12.3112 97.0059 12.8152 97.0059C13.3132 97.0059 13.7702 96.8828 14.1862 96.6367C14.6023 96.3906 14.9304 96.0654 15.1706 95.6611C15.4167 95.251 15.5398 94.8145 15.5398 94.3516C15.5398 93.8945 15.4226 93.4639 15.1882 93.0596C14.9597 92.6553 14.6374 92.3301 14.2214 92.084C13.8112 91.8379 13.3542 91.7148 12.8503 91.7148ZM20.2162 101.365C19.9936 101.365 19.7827 101.31 19.5834 101.198C19.3901 101.087 19.2377 100.935 19.1264 100.741C19.0151 100.548 18.9623 100.34 18.9682 100.117C18.9623 99.8945 19.0151 99.6865 19.1264 99.4932C19.2377 99.2998 19.3901 99.1475 19.5834 99.0361C19.7827 98.9248 19.9936 98.8691 20.2162 98.8691C20.433 98.8691 20.6381 98.9248 20.8315 99.0361C21.0248 99.1475 21.1772 99.2998 21.2885 99.4932C21.4057 99.6865 21.4643 99.8945 21.4643 100.117C21.4643 100.34 21.4057 100.548 21.2885 100.741C21.1772 100.935 21.0248 101.087 20.8315 101.198C20.6381 101.31 20.433 101.365 20.2162 101.365ZM20.2162 94.4219C19.9936 94.4219 19.7827 94.3662 19.5834 94.2549C19.3901 94.1436 19.2377 93.9912 19.1264 93.7979C19.0151 93.6045 18.9623 93.3965 18.9682 93.1738C18.9623 92.9512 19.0151 92.7432 19.1264 92.5498C19.2377 92.3564 19.3901 92.2041 19.5834 92.0928C19.7827 91.9814 19.9936 91.9258 20.2162 91.9258C20.433 91.9258 20.6381 91.9814 20.8315 92.0928C21.0248 92.2041 21.1772 92.3564 21.2885 92.5498C21.4057 92.7432 21.4643 92.9512 21.4643 93.1738C21.4643 93.3965 21.4057 93.6045 21.2885 93.7979C21.1772 93.9912 21.0248 94.1436 20.8315 94.2549C20.6381 94.3662 20.433 94.4219 20.2162 94.4219ZM22.9943 101.594L27.4064 97.1465C27.9396 96.584 28.3468 96.1328 28.6281 95.793C28.9093 95.4531 29.1232 95.1221 29.2697 94.7998C29.422 94.4717 29.4982 94.1289 29.4982 93.7715C29.4982 93.3613 29.3957 93.001 29.1906 92.6904C28.9855 92.3799 28.7043 92.1396 28.3468 91.9697C27.9894 91.7998 27.588 91.7148 27.1427 91.7148C26.6798 91.7148 26.2726 91.8086 25.9211 91.9961C25.5695 92.1836 25.297 92.4473 25.1037 92.7871C24.9162 93.127 24.8224 93.5195 24.8224 93.9648H22.9943C22.9884 93.2031 23.1642 92.5293 23.5216 91.9434C23.8791 91.3574 24.3771 90.9033 25.0158 90.5811C25.6545 90.2588 26.3752 90.0977 27.1779 90.0977C27.9865 90.0977 28.7043 90.2559 29.3312 90.5723C29.964 90.8828 30.4562 91.3135 30.8078 91.8643C31.1593 92.415 31.338 93.0332 31.3439 93.7188C31.338 94.2051 31.2443 94.6738 31.0627 95.125C30.881 95.5703 30.5705 96.0684 30.131 96.6191C29.6916 97.1641 29.0705 97.832 28.2677 98.623L25.6838 101.242V101.348H31.5548V103H22.9943V101.594ZM37.4091 103.176C36.4305 103.176 35.5897 102.921 34.8866 102.411C34.1893 101.901 33.6561 101.157 33.287 100.179C32.9179 99.1943 32.7333 98.0137 32.7333 96.6367C32.7333 95.2715 32.9179 94.0996 33.287 93.1211C33.662 92.1367 34.2011 91.3867 34.9042 90.8711C35.6073 90.3555 36.4423 90.0977 37.4091 90.0977C38.3759 90.0977 39.2108 90.3555 39.9139 90.8711C40.6171 91.3867 41.1532 92.1367 41.5223 93.1211C41.8973 94.0996 42.0848 95.2715 42.0848 96.6367C42.0848 98.0137 41.9003 99.1914 41.5311 100.17C41.162 101.148 40.6259 101.896 39.9227 102.411C39.2196 102.921 38.3817 103.176 37.4091 103.176ZM37.4091 101.506C37.9833 101.506 38.4755 101.321 38.8856 100.952C39.2958 100.577 39.6093 100.026 39.8261 99.2998C40.0429 98.5732 40.1512 97.6855 40.1512 96.6367C40.1512 95.5938 40.0399 94.7061 39.8173 93.9736C39.6005 93.2354 39.287 92.6787 38.8768 92.3037C38.4667 91.9229 37.9774 91.7324 37.4091 91.7324C36.8407 91.7324 36.3514 91.9229 35.9413 92.3037C35.5311 92.6787 35.2147 93.2354 34.9921 93.9736C34.7753 94.7061 34.6669 95.5938 34.6669 96.6367C34.6669 97.6855 34.7753 98.5732 34.9921 99.2998C35.2089 100.026 35.5223 100.577 35.9325 100.952C36.3427 101.321 36.8348 101.506 37.4091 101.506ZM43.9313 96.3027C44.2184 95.9805 44.5377 95.7373 44.8893 95.5732C45.2467 95.4033 45.6246 95.3184 46.023 95.3184C46.3336 95.3184 46.6383 95.3623 46.9371 95.4502C47.2418 95.5381 47.5992 95.6641 48.0094 95.8281C48.4313 95.9922 48.7828 96.1152 49.0641 96.1973C49.3512 96.2793 49.6441 96.3203 49.943 96.3203C50.7691 96.3203 51.4547 95.9688 51.9996 95.2656V96.9531C51.3961 97.6094 50.6988 97.9375 49.9078 97.9375C49.5973 97.9375 49.2896 97.8936 48.985 97.8057C48.6861 97.7178 48.3316 97.5918 47.9215 97.4277C47.4762 97.2578 47.1129 97.1348 46.8316 97.0586C46.5563 96.9766 46.2691 96.9355 45.9703 96.9355C45.1734 96.9355 44.4938 97.2871 43.9313 97.9902V96.3027ZM53.5823 101.594L57.9945 97.1465C58.5277 96.584 58.9349 96.1328 59.2161 95.793C59.4974 95.4531 59.7113 95.1221 59.8577 94.7998C60.0101 94.4717 60.0863 94.1289 60.0863 93.7715C60.0863 93.3613 59.9837 93.001 59.7786 92.6904C59.5736 92.3799 59.2923 92.1396 58.9349 91.9697C58.5775 91.7998 58.1761 91.7148 57.7308 91.7148C57.2679 91.7148 56.8607 91.8086 56.5091 91.9961C56.1575 92.1836 55.8851 92.4473 55.6917 92.7871C55.5042 93.127 55.4105 93.5195 55.4105 93.9648H53.5823C53.5765 93.2031 53.7523 92.5293 54.1097 91.9434C54.4671 91.3574 54.9652 90.9033 55.6038 90.5811C56.2425 90.2588 56.9632 90.0977 57.7659 90.0977C58.5745 90.0977 59.2923 90.2559 59.9193 90.5723C60.5521 90.8828 61.0443 91.3135 61.3958 91.8643C61.7474 92.415 61.9261 93.0332 61.932 93.7188C61.9261 94.2051 61.8323 94.6738 61.6507 95.125C61.4691 95.5703 61.1585 96.0684 60.7191 96.6191C60.2796 97.1641 59.6585 97.832 58.8558 98.623L56.2718 101.242V101.348H62.1429V103H53.5823V101.594ZM67.9971 103.176C67.0186 103.176 66.1778 102.921 65.4746 102.411C64.7774 101.901 64.2442 101.157 63.875 100.179C63.5059 99.1943 63.3213 98.0137 63.3213 96.6367C63.3213 95.2715 63.5059 94.0996 63.875 93.1211C64.25 92.1367 64.7891 91.3867 65.4922 90.8711C66.1954 90.3555 67.0303 90.0977 67.9971 90.0977C68.9639 90.0977 69.7989 90.3555 70.502 90.8711C71.2051 91.3867 71.7412 92.1367 72.1104 93.1211C72.4854 94.0996 72.6729 95.2715 72.6729 96.6367C72.6729 98.0137 72.4883 99.1914 72.1192 100.17C71.75 101.148 71.2139 101.896 70.5108 102.411C69.8077 102.921 68.9698 103.176 67.9971 103.176ZM67.9971 101.506C68.5713 101.506 69.0635 101.321 69.4737 100.952C69.8838 100.577 70.1973 100.026 70.4141 99.2998C70.6309 98.5732 70.7393 97.6855 70.7393 96.6367C70.7393 95.5938 70.628 94.7061 70.4053 93.9736C70.1885 93.2354 69.875 92.6787 69.4649 92.3037C69.0547 91.9229 68.5655 91.7324 67.9971 91.7324C67.4287 91.7324 66.9395 91.9229 66.5293 92.3037C66.1192 92.6787 65.8028 93.2354 65.5801 93.9736C65.3633 94.7061 65.2549 95.5938 65.2549 96.6367C65.2549 97.6855 65.3633 98.5732 65.5801 99.2998C65.7969 100.026 66.1104 100.577 66.5205 100.952C66.9307 101.321 67.4229 101.506 67.9971 101.506ZM75.2048 101.365C74.9822 101.365 74.7712 101.31 74.572 101.198C74.3787 101.087 74.2263 100.935 74.115 100.741C74.0037 100.548 73.9509 100.34 73.9568 100.117C73.9509 99.8945 74.0037 99.6865 74.115 99.4932C74.2263 99.2998 74.3787 99.1475 74.572 99.0361C74.7712 98.9248 74.9822 98.8691 75.2048 98.8691C75.4216 98.8691 75.6267 98.9248 75.8201 99.0361C76.0134 99.1475 76.1658 99.2998 76.2771 99.4932C76.3943 99.6865 76.4529 99.8945 76.4529 100.117C76.4529 100.34 76.3943 100.548 76.2771 100.741C76.1658 100.935 76.0134 101.087 75.8201 101.198C75.6267 101.31 75.4216 101.365 75.2048 101.365ZM75.2048 94.4219C74.9822 94.4219 74.7712 94.3662 74.572 94.2549C74.3787 94.1436 74.2263 93.9912 74.115 93.7979C74.0037 93.6045 73.9509 93.3965 73.9568 93.1738C73.9509 92.9512 74.0037 92.7432 74.115 92.5498C74.2263 92.3564 74.3787 92.2041 74.572 92.0928C74.7712 91.9814 74.9822 91.9258 75.2048 91.9258C75.4216 91.9258 75.6267 91.9814 75.8201 92.0928C76.0134 92.2041 76.1658 92.3564 76.2771 92.5498C76.3943 92.7432 76.4529 92.9512 76.4529 93.1738C76.4529 93.3965 76.3943 93.6045 76.2771 93.7979C76.1658 93.9912 76.0134 94.1436 75.8201 94.2549C75.6267 94.3662 75.4216 94.4219 75.2048 94.4219ZM82.8169 103H80.8657V92.207H80.7954L77.7544 94.1934V92.3477L80.9184 90.2734H82.8169V103ZM89.7609 103.176C88.7824 103.176 87.9416 102.921 87.2385 102.411C86.5412 101.901 86.008 101.157 85.6389 100.179C85.2697 99.1943 85.0852 98.0137 85.0852 96.6367C85.0852 95.2715 85.2697 94.0996 85.6389 93.1211C86.0139 92.1367 86.5529 91.3867 87.2561 90.8711C87.9592 90.3555 88.7941 90.0977 89.7609 90.0977C90.7277 90.0977 91.5627 90.3555 92.2658 90.8711C92.9689 91.3867 93.5051 92.1367 93.8742 93.1211C94.2492 94.0996 94.4367 95.2715 94.4367 96.6367C94.4367 98.0137 94.2522 99.1914 93.883 100.17C93.5139 101.148 92.9777 101.896 92.2746 102.411C91.5715 102.921 90.7336 103.176 89.7609 103.176ZM89.7609 101.506C90.3352 101.506 90.8273 101.321 91.2375 100.952C91.6477 100.577 91.9611 100.026 92.1779 99.2998C92.3947 98.5732 92.5031 97.6855 92.5031 96.6367C92.5031 95.5938 92.3918 94.7061 92.1691 93.9736C91.9523 93.2354 91.6389 92.6787 91.2287 92.3037C90.8186 91.9229 90.3293 91.7324 89.7609 91.7324C89.1926 91.7324 88.7033 91.9229 88.2932 92.3037C87.883 92.6787 87.5666 93.2354 87.3439 93.9736C87.1272 94.7061 87.0188 95.5938 87.0188 96.6367C87.0188 97.6855 87.1272 98.5732 87.3439 99.2998C87.5607 100.026 87.8742 100.577 88.2844 100.952C88.6945 101.321 89.1867 101.506 89.7609 101.506Z" fill="#616161"/>
<path d="M1.125 187.594L5.53711 183.146C6.07031 182.584 6.47754 182.133 6.75879 181.793C7.04004 181.453 7.25391 181.122 7.40039 180.8C7.55273 180.472 7.62891 180.129 7.62891 179.771C7.62891 179.361 7.52637 179.001 7.32129 178.69C7.11621 178.38 6.83496 178.14 6.47754 177.97C6.12012 177.8 5.71875 177.715 5.27344 177.715C4.81055 177.715 4.40332 177.809 4.05176 177.996C3.7002 178.184 3.42773 178.447 3.23438 178.787C3.04688 179.127 2.95312 179.52 2.95312 179.965H1.125C1.11914 179.203 1.29492 178.529 1.65234 177.943C2.00977 177.357 2.50781 176.903 3.14648 176.581C3.78516 176.259 4.50586 176.098 5.30859 176.098C6.11719 176.098 6.83496 176.256 7.46191 176.572C8.09473 176.883 8.58691 177.313 8.93848 177.864C9.29004 178.415 9.46875 179.033 9.47461 179.719C9.46875 180.205 9.375 180.674 9.19336 181.125C9.01172 181.57 8.70117 182.068 8.26172 182.619C7.82227 183.164 7.20117 183.832 6.39844 184.623L3.81445 187.242V187.348H9.68555V189H1.125V187.594ZM15.5398 189.176C14.5612 189.176 13.7204 188.921 13.0173 188.411C12.32 187.901 11.7868 187.157 11.4177 186.179C11.0486 185.194 10.864 184.014 10.864 182.637C10.864 181.271 11.0486 180.1 11.4177 179.121C11.7927 178.137 12.3318 177.387 13.0349 176.871C13.738 176.355 14.573 176.098 15.5398 176.098C16.5066 176.098 17.3415 176.355 18.0446 176.871C18.7478 177.387 19.2839 178.137 19.653 179.121C20.028 180.1 20.2155 181.271 20.2155 182.637C20.2155 184.014 20.031 185.191 19.6618 186.17C19.2927 187.148 18.7566 187.896 18.0534 188.411C17.3503 188.921 16.5124 189.176 15.5398 189.176ZM15.5398 187.506C16.114 187.506 16.6062 187.321 17.0163 186.952C17.4265 186.577 17.74 186.026 17.9568 185.3C18.1736 184.573 18.282 183.686 18.282 182.637C18.282 181.594 18.1706 180.706 17.948 179.974C17.7312 179.235 17.4177 178.679 17.0075 178.304C16.5974 177.923 16.1081 177.732 15.5398 177.732C14.9714 177.732 14.4821 177.923 14.072 178.304C13.6618 178.679 13.3454 179.235 13.1228 179.974C12.906 180.706 12.7976 181.594 12.7976 182.637C12.7976 183.686 12.906 184.573 13.1228 185.3C13.3396 186.026 13.653 186.577 14.0632 186.952C14.4734 187.321 14.9655 187.506 15.5398 187.506ZM22.7475 187.365C22.5248 187.365 22.3139 187.31 22.1147 187.198C21.9213 187.087 21.769 186.935 21.6577 186.741C21.5463 186.548 21.4936 186.34 21.4995 186.117C21.4936 185.895 21.5463 185.687 21.6577 185.493C21.769 185.3 21.9213 185.147 22.1147 185.036C22.3139 184.925 22.5248 184.869 22.7475 184.869C22.9643 184.869 23.1694 184.925 23.3627 185.036C23.5561 185.147 23.7084 185.3 23.8198 185.493C23.937 185.687 23.9955 185.895 23.9955 186.117C23.9955 186.34 23.937 186.548 23.8198 186.741C23.7084 186.935 23.5561 187.087 23.3627 187.198C23.1694 187.31 22.9643 187.365 22.7475 187.365ZM22.7475 180.422C22.5248 180.422 22.3139 180.366 22.1147 180.255C21.9213 180.144 21.769 179.991 21.6577 179.798C21.5463 179.604 21.4936 179.396 21.4995 179.174C21.4936 178.951 21.5463 178.743 21.6577 178.55C21.769 178.356 21.9213 178.204 22.1147 178.093C22.3139 177.981 22.5248 177.926 22.7475 177.926C22.9643 177.926 23.1694 177.981 23.3627 178.093C23.5561 178.204 23.7084 178.356 23.8198 178.55C23.937 178.743 23.9955 178.951 23.9955 179.174C23.9955 179.396 23.937 179.604 23.8198 179.798C23.7084 179.991 23.5561 180.144 23.3627 180.255C23.1694 180.366 22.9643 180.422 22.7475 180.422ZM25.5255 187.594L29.9377 183.146C30.4709 182.584 30.8781 182.133 31.1593 181.793C31.4406 181.453 31.6545 181.122 31.8009 180.8C31.9533 180.472 32.0295 180.129 32.0295 179.771C32.0295 179.361 31.9269 179.001 31.7218 178.69C31.5168 178.38 31.2355 178.14 30.8781 177.97C30.5207 177.8 30.1193 177.715 29.674 177.715C29.2111 177.715 28.8039 177.809 28.4523 177.996C28.1007 178.184 27.8283 178.447 27.6349 178.787C27.4474 179.127 27.3537 179.52 27.3537 179.965H25.5255C25.5197 179.203 25.6955 178.529 26.0529 177.943C26.4103 177.357 26.9084 176.903 27.547 176.581C28.1857 176.259 28.9064 176.098 29.7091 176.098C30.5177 176.098 31.2355 176.256 31.8625 176.572C32.4953 176.883 32.9875 177.313 33.339 177.864C33.6906 178.415 33.8693 179.033 33.8752 179.719C33.8693 180.205 33.7755 180.674 33.5939 181.125C33.4123 181.57 33.1017 182.068 32.6623 182.619C32.2228 183.164 31.6017 183.832 30.799 184.623L28.215 187.242V187.348H34.0861V189H25.5255V187.594ZM39.9403 189.176C38.9618 189.176 38.121 188.921 37.4179 188.411C36.7206 187.901 36.1874 187.157 35.8182 186.179C35.4491 185.194 35.2645 184.014 35.2645 182.637C35.2645 181.271 35.4491 180.1 35.8182 179.121C36.1932 178.137 36.7323 177.387 37.4354 176.871C38.1386 176.355 38.9735 176.098 39.9403 176.098C40.9071 176.098 41.7421 176.355 42.4452 176.871C43.1483 177.387 43.6845 178.137 44.0536 179.121C44.4286 180.1 44.6161 181.271 44.6161 182.637C44.6161 184.014 44.4315 185.191 44.0624 186.17C43.6932 187.148 43.1571 187.896 42.454 188.411C41.7509 188.921 40.913 189.176 39.9403 189.176ZM39.9403 187.506C40.5145 187.506 41.0067 187.321 41.4169 186.952C41.827 186.577 42.1405 186.026 42.3573 185.3C42.5741 184.573 42.6825 183.686 42.6825 182.637C42.6825 181.594 42.5712 180.706 42.3485 179.974C42.1317 179.235 41.8182 178.679 41.4081 178.304C40.9979 177.923 40.5087 177.732 39.9403 177.732C39.372 177.732 38.8827 177.923 38.4725 178.304C38.0624 178.679 37.746 179.235 37.5233 179.974C37.3065 180.706 37.1981 181.594 37.1981 182.637C37.1981 183.686 37.3065 184.573 37.5233 185.3C37.7401 186.026 38.0536 186.577 38.4637 186.952C38.8739 187.321 39.3661 187.506 39.9403 187.506ZM46.4625 182.303C46.7496 181.98 47.0689 181.737 47.4205 181.573C47.7779 181.403 48.1559 181.318 48.5543 181.318C48.8648 181.318 49.1695 181.362 49.4684 181.45C49.773 181.538 50.1305 181.664 50.5406 181.828C50.9625 181.992 51.3141 182.115 51.5953 182.197C51.8824 182.279 52.1754 182.32 52.4742 182.32C53.3004 182.32 53.9859 181.969 54.5309 181.266V182.953C53.9273 183.609 53.2301 183.938 52.4391 183.938C52.1285 183.938 51.8209 183.894 51.5162 183.806C51.2174 183.718 50.8629 183.592 50.4527 183.428C50.0074 183.258 49.6441 183.135 49.3629 183.059C49.0875 182.977 48.8004 182.936 48.5016 182.936C47.7047 182.936 47.025 183.287 46.4625 183.99V182.303ZM56.1136 187.594L60.5257 183.146C61.0589 182.584 61.4661 182.133 61.7474 181.793C62.0286 181.453 62.2425 181.122 62.389 180.8C62.5413 180.472 62.6175 180.129 62.6175 179.771C62.6175 179.361 62.515 179.001 62.3099 178.69C62.1048 178.38 61.8236 178.14 61.4661 177.97C61.1087 177.8 60.7073 177.715 60.262 177.715C59.7991 177.715 59.3919 177.809 59.0404 177.996C58.6888 178.184 58.4163 178.447 58.223 178.787C58.0355 179.127 57.9417 179.52 57.9417 179.965H56.1136C56.1077 179.203 56.2835 178.529 56.6409 177.943C56.9984 177.357 57.4964 176.903 58.1351 176.581C58.7738 176.259 59.4945 176.098 60.2972 176.098C61.1058 176.098 61.8236 176.256 62.4505 176.572C63.0833 176.883 63.5755 177.313 63.9271 177.864C64.2786 178.415 64.4573 179.033 64.4632 179.719C64.4573 180.205 64.3636 180.674 64.182 181.125C64.0003 181.57 63.6898 182.068 63.2503 182.619C62.8109 183.164 62.1898 183.832 61.387 184.623L58.803 187.242V187.348H64.6741V189H56.1136V187.594ZM70.9327 189H68.9815V178.207H68.9112L65.8702 180.193V178.348L69.0342 176.273H70.9327V189ZM74.6951 187.365C74.4724 187.365 74.2615 187.31 74.0623 187.198C73.8689 187.087 73.7166 186.935 73.6052 186.741C73.4939 186.548 73.4412 186.34 73.447 186.117C73.4412 185.895 73.4939 185.687 73.6052 185.493C73.7166 185.3 73.8689 185.147 74.0623 185.036C74.2615 184.925 74.4724 184.869 74.6951 184.869C74.9119 184.869 75.117 184.925 75.3103 185.036C75.5037 185.147 75.656 185.3 75.7673 185.493C75.8845 185.687 75.9431 185.895 75.9431 186.117C75.9431 186.34 75.8845 186.548 75.7673 186.741C75.656 186.935 75.5037 187.087 75.3103 187.198C75.117 187.31 74.9119 187.365 74.6951 187.365ZM74.6951 180.422C74.4724 180.422 74.2615 180.366 74.0623 180.255C73.8689 180.144 73.7166 179.991 73.6052 179.798C73.4939 179.604 73.4412 179.396 73.447 179.174C73.4412 178.951 73.4939 178.743 73.6052 178.55C73.7166 178.356 73.8689 178.204 74.0623 178.093C74.2615 177.981 74.4724 177.926 74.6951 177.926C74.9119 177.926 75.117 177.981 75.3103 178.093C75.5037 178.204 75.656 178.356 75.7673 178.55C75.8845 178.743 75.9431 178.951 75.9431 179.174C75.9431 179.396 75.8845 179.604 75.7673 179.798C75.656 179.991 75.5037 180.144 75.3103 180.255C75.117 180.366 74.9119 180.422 74.6951 180.422ZM82.3071 189H80.3559V178.207H80.2856L77.2446 180.193V178.348L80.4087 176.273H82.3071V189ZM89.2512 189.176C88.2727 189.176 87.4318 188.921 86.7287 188.411C86.0314 187.901 85.4982 187.157 85.1291 186.179C84.76 185.194 84.5754 184.014 84.5754 182.637C84.5754 181.271 84.76 180.1 85.1291 179.121C85.5041 178.137 86.0432 177.387 86.7463 176.871C87.4494 176.355 88.2844 176.098 89.2512 176.098C90.218 176.098 91.0529 176.355 91.7561 176.871C92.4592 177.387 92.9953 178.137 93.3645 179.121C93.7395 180.1 93.927 181.271 93.927 182.637C93.927 184.014 93.7424 185.191 93.3732 186.17C93.0041 187.148 92.468 187.896 91.7648 188.411C91.0617 188.921 90.2238 189.176 89.2512 189.176ZM89.2512 187.506C89.8254 187.506 90.3176 187.321 90.7277 186.952C91.1379 186.577 91.4514 186.026 91.6682 185.3C91.885 184.573 91.9934 183.686 91.9934 182.637C91.9934 181.594 91.882 180.706 91.6594 179.974C91.4426 179.235 91.1291 178.679 90.7189 178.304C90.3088 177.923 89.8195 177.732 89.2512 177.732C88.6828 177.732 88.1936 177.923 87.7834 178.304C87.3732 178.679 87.0568 179.235 86.8342 179.974C86.6174 180.706 86.509 181.594 86.509 182.637C86.509 183.686 86.6174 184.573 86.8342 185.3C87.051 186.026 87.3645 186.577 87.7746 186.952C88.1848 187.321 88.677 187.506 89.2512 187.506Z" fill="#616161"/>
<path d="M1.125 273.594L5.53711 269.146C6.07031 268.584 6.47754 268.133 6.75879 267.793C7.04004 267.453 7.25391 267.122 7.40039 266.8C7.55273 266.472 7.62891 266.129 7.62891 265.771C7.62891 265.361 7.52637 265.001 7.32129 264.69C7.11621 264.38 6.83496 264.14 6.47754 263.97C6.12012 263.8 5.71875 263.715 5.27344 263.715C4.81055 263.715 4.40332 263.809 4.05176 263.996C3.7002 264.184 3.42773 264.447 3.23438 264.787C3.04688 265.127 2.95312 265.52 2.95312 265.965H1.125C1.11914 265.203 1.29492 264.529 1.65234 263.943C2.00977 263.357 2.50781 262.903 3.14648 262.581C3.78516 262.259 4.50586 262.098 5.30859 262.098C6.11719 262.098 6.83496 262.256 7.46191 262.572C8.09473 262.883 8.58691 263.313 8.93848 263.864C9.29004 264.415 9.46875 265.033 9.47461 265.719C9.46875 266.205 9.375 266.674 9.19336 267.125C9.01172 267.57 8.70117 268.068 8.26172 268.619C7.82227 269.164 7.20117 269.832 6.39844 270.623L3.81445 273.242V273.348H9.68555V275H1.125V273.594ZM15.9441 275H13.9929V264.207H13.9226L10.8816 266.193V264.348L14.0456 262.273H15.9441V275ZM19.7065 273.365C19.4838 273.365 19.2729 273.31 19.0737 273.198C18.8803 273.087 18.728 272.935 18.6166 272.741C18.5053 272.548 18.4526 272.34 18.4584 272.117C18.4526 271.895 18.5053 271.687 18.6166 271.493C18.728 271.3 18.8803 271.147 19.0737 271.036C19.2729 270.925 19.4838 270.869 19.7065 270.869C19.9233 270.869 20.1284 270.925 20.3217 271.036C20.5151 271.147 20.6674 271.3 20.7787 271.493C20.8959 271.687 20.9545 271.895 20.9545 272.117C20.9545 272.34 20.8959 272.548 20.7787 272.741C20.6674 272.935 20.5151 273.087 20.3217 273.198C20.1284 273.31 19.9233 273.365 19.7065 273.365ZM19.7065 266.422C19.4838 266.422 19.2729 266.366 19.0737 266.255C18.8803 266.144 18.728 265.991 18.6166 265.798C18.5053 265.604 18.4526 265.396 18.4584 265.174C18.4526 264.951 18.5053 264.743 18.6166 264.55C18.728 264.356 18.8803 264.204 19.0737 264.093C19.2729 263.981 19.4838 263.926 19.7065 263.926C19.9233 263.926 20.1284 263.981 20.3217 264.093C20.5151 264.204 20.6674 264.356 20.7787 264.55C20.8959 264.743 20.9545 264.951 20.9545 265.174C20.9545 265.396 20.8959 265.604 20.7787 265.798C20.6674 265.991 20.5151 266.144 20.3217 266.255C20.1284 266.366 19.9233 266.422 19.7065 266.422ZM22.4845 273.594L26.8966 269.146C27.4298 268.584 27.8371 268.133 28.1183 267.793C28.3996 267.453 28.6134 267.122 28.7599 266.8C28.9123 266.472 28.9884 266.129 28.9884 265.771C28.9884 265.361 28.8859 265.001 28.6808 264.69C28.4757 264.38 28.1945 264.14 27.8371 263.97C27.4796 263.8 27.0783 263.715 26.633 263.715C26.1701 263.715 25.7629 263.809 25.4113 263.996C25.0597 264.184 24.7873 264.447 24.5939 264.787C24.4064 265.127 24.3127 265.52 24.3127 265.965H22.4845C22.4787 265.203 22.6545 264.529 23.0119 263.943C23.3693 263.357 23.8673 262.903 24.506 262.581C25.1447 262.259 25.8654 262.098 26.6681 262.098C27.4767 262.098 28.1945 262.256 28.8214 262.572C29.4543 262.883 29.9464 263.313 30.298 263.864C30.6496 264.415 30.8283 265.033 30.8341 265.719C30.8283 266.205 30.7345 266.674 30.5529 267.125C30.3713 267.57 30.0607 268.068 29.6213 268.619C29.1818 269.164 28.5607 269.832 27.758 270.623L25.174 273.242V273.348H31.0451V275H22.4845V273.594ZM36.8993 275.176C35.9208 275.176 35.08 274.921 34.3768 274.411C33.6796 273.901 33.1464 273.157 32.7772 272.179C32.4081 271.194 32.2235 270.014 32.2235 268.637C32.2235 267.271 32.4081 266.1 32.7772 265.121C33.1522 264.137 33.6913 263.387 34.3944 262.871C35.0975 262.355 35.9325 262.098 36.8993 262.098C37.8661 262.098 38.7011 262.355 39.4042 262.871C40.1073 263.387 40.6434 264.137 41.0126 265.121C41.3876 266.1 41.5751 267.271 41.5751 268.637C41.5751 270.014 41.3905 271.191 41.0214 272.17C40.6522 273.148 40.1161 273.896 39.413 274.411C38.7098 274.921 37.872 275.176 36.8993 275.176ZM36.8993 273.506C37.4735 273.506 37.9657 273.321 38.3759 272.952C38.786 272.577 39.0995 272.026 39.3163 271.3C39.5331 270.573 39.6415 269.686 39.6415 268.637C39.6415 267.594 39.5302 266.706 39.3075 265.974C39.0907 265.235 38.7772 264.679 38.3671 264.304C37.9569 263.923 37.4677 263.732 36.8993 263.732C36.3309 263.732 35.8417 263.923 35.4315 264.304C35.0214 264.679 34.705 265.235 34.4823 265.974C34.2655 266.706 34.1571 267.594 34.1571 268.637C34.1571 269.686 34.2655 270.573 34.4823 271.3C34.6991 272.026 35.0126 272.577 35.4227 272.952C35.8329 273.321 36.3251 273.506 36.8993 273.506ZM43.4215 268.303C43.7086 267.98 44.0279 267.737 44.3795 267.573C44.7369 267.403 45.1148 267.318 45.5133 267.318C45.8238 267.318 46.1285 267.362 46.4273 267.45C46.732 267.538 47.0895 267.664 47.4996 267.828C47.9215 267.992 48.273 268.115 48.5543 268.197C48.8414 268.279 49.1344 268.32 49.4332 268.32C50.2594 268.32 50.9449 267.969 51.4898 267.266V268.953C50.8863 269.609 50.1891 269.938 49.398 269.938C49.0875 269.938 48.7799 269.894 48.4752 269.806C48.1764 269.718 47.8219 269.592 47.4117 269.428C46.9664 269.258 46.6031 269.135 46.3219 269.059C46.0465 268.977 45.7594 268.936 45.4605 268.936C44.6637 268.936 43.984 269.287 43.4215 269.99V268.303ZM53.0726 273.594L57.4847 269.146C58.0179 268.584 58.4251 268.133 58.7064 267.793C58.9876 267.453 59.2015 267.122 59.348 266.8C59.5003 266.472 59.5765 266.129 59.5765 265.771C59.5765 265.361 59.4739 265.001 59.2689 264.69C59.0638 264.38 58.7825 264.14 58.4251 263.97C58.0677 263.8 57.6663 263.715 57.221 263.715C56.7581 263.715 56.3509 263.809 55.9993 263.996C55.6478 264.184 55.3753 264.447 55.182 264.787C54.9945 265.127 54.9007 265.52 54.9007 265.965H53.0726C53.0667 265.203 53.2425 264.529 53.5999 263.943C53.9573 263.357 54.4554 262.903 55.0941 262.581C55.7327 262.259 56.4534 262.098 57.2562 262.098C58.0648 262.098 58.7825 262.256 59.4095 262.572C60.0423 262.883 60.5345 263.313 60.8861 263.864C61.2376 264.415 61.4163 265.033 61.4222 265.719C61.4163 266.205 61.3226 266.674 61.1409 267.125C60.9593 267.57 60.6488 268.068 60.2093 268.619C59.7698 269.164 59.1488 269.832 58.346 270.623L55.762 273.242V273.348H61.6331V275H53.0726V273.594ZM63.0577 273.594L67.4698 269.146C68.003 268.584 68.4102 268.133 68.6914 267.793C68.9727 267.453 69.1866 267.122 69.333 266.8C69.4854 266.472 69.5616 266.129 69.5616 265.771C69.5616 265.361 69.459 265.001 69.2539 264.69C69.0489 264.38 68.7676 264.14 68.4102 263.97C68.0528 263.8 67.6514 263.715 67.2061 263.715C66.7432 263.715 66.336 263.809 65.9844 263.996C65.6329 264.184 65.3604 264.447 65.167 264.787C64.9795 265.127 64.8858 265.52 64.8858 265.965H63.0577C63.0518 265.203 63.2276 264.529 63.585 263.943C63.9424 263.357 64.4405 262.903 65.0791 262.581C65.7178 262.259 66.4385 262.098 67.2412 262.098C68.0498 262.098 68.7676 262.256 69.3946 262.572C70.0274 262.883 70.5196 263.313 70.8711 263.864C71.2227 264.415 71.4014 265.033 71.4073 265.719C71.4014 266.205 71.3077 266.674 71.126 267.125C70.9444 267.57 70.6338 268.068 70.1944 268.619C69.7549 269.164 69.1338 269.832 68.3311 270.623L65.7471 273.242V273.348H71.6182V275H63.0577V273.594ZM74.2908 273.365C74.0681 273.365 73.8572 273.31 73.658 273.198C73.4646 273.087 73.3123 272.935 73.2009 272.741C73.0896 272.548 73.0369 272.34 73.0427 272.117C73.0369 271.895 73.0896 271.687 73.2009 271.493C73.3123 271.3 73.4646 271.147 73.658 271.036C73.8572 270.925 74.0681 270.869 74.2908 270.869C74.5076 270.869 74.7127 270.925 74.906 271.036C75.0994 271.147 75.2517 271.3 75.363 271.493C75.4802 271.687 75.5388 271.895 75.5388 272.117C75.5388 272.34 75.4802 272.548 75.363 272.741C75.2517 272.935 75.0994 273.087 74.906 273.198C74.7127 273.31 74.5076 273.365 74.2908 273.365ZM74.2908 266.422C74.0681 266.422 73.8572 266.366 73.658 266.255C73.4646 266.144 73.3123 265.991 73.2009 265.798C73.0896 265.604 73.0369 265.396 73.0427 265.174C73.0369 264.951 73.0896 264.743 73.2009 264.55C73.3123 264.356 73.4646 264.204 73.658 264.093C73.8572 263.981 74.0681 263.926 74.2908 263.926C74.5076 263.926 74.7127 263.981 74.906 264.093C75.0994 264.204 75.2517 264.356 75.363 264.55C75.4802 264.743 75.5388 264.951 75.5388 265.174C75.5388 265.396 75.4802 265.604 75.363 265.798C75.2517 265.991 75.0994 266.144 74.906 266.255C74.7127 266.366 74.5076 266.422 74.2908 266.422ZM81.9028 275H79.9516V264.207H79.8813L76.8403 266.193V264.348L80.0044 262.273H81.9028V275ZM88.8469 275.176C87.8684 275.176 87.0275 274.921 86.3244 274.411C85.6272 273.901 85.0939 273.157 84.7248 272.179C84.3557 271.194 84.1711 270.014 84.1711 268.637C84.1711 267.271 84.3557 266.1 84.7248 265.121C85.0998 264.137 85.6389 263.387 86.342 262.871C87.0451 262.355 87.8801 262.098 88.8469 262.098C89.8137 262.098 90.6486 262.355 91.3518 262.871C92.0549 263.387 92.591 264.137 92.9602 265.121C93.3352 266.1 93.5227 267.271 93.5227 268.637C93.5227 270.014 93.3381 271.191 92.9689 272.17C92.5998 273.148 92.0637 273.896 91.3605 274.411C90.6574 274.921 89.8195 275.176 88.8469 275.176ZM88.8469 273.506C89.4211 273.506 89.9133 273.321 90.3234 272.952C90.7336 272.577 91.0471 272.026 91.2639 271.3C91.4807 270.573 91.5891 269.686 91.5891 268.637C91.5891 267.594 91.4777 266.706 91.2551 265.974C91.0383 265.235 90.7248 264.679 90.3147 264.304C89.9045 263.923 89.4152 263.732 88.8469 263.732C88.2785 263.732 87.7893 263.923 87.3791 264.304C86.9689 264.679 86.6525 265.235 86.4299 265.974C86.2131 266.706 86.1047 267.594 86.1047 268.637C86.1047 269.686 86.2131 270.573 86.4299 271.3C86.6467 272.026 86.9602 272.577 87.3703 272.952C87.7805 273.321 88.2727 273.506 88.8469 273.506Z" fill="#616161"/>
</svg>
